# xmcd
#
# Track frame offsets:
#	150
#	6643
#	19100
#	29734
#	34233
#	42856
#	54994
#	66268
#	85481
#	98546
#	111201
#	121274
#	147232
#	164665
#	187702
#	204936
#	208690
#	221897
#
# Disc length: 3104 seconds
#
# Revision: 1
# Processed by: cddbd v1.5.2PL0 Copyright (c) Steve Scherf et al.
# Submitted via: audiograbber 1.83.01
#
DISCID=050c1e12
DTITLE=SILVAN ZINGG - TRUMPET BOOGIE
DYEAR=2010
DGENRE=BOOGIE WOOGIE
TTITLE0=Trumpet boogie
TTITLE1=royal Garden Blues
TTITLE2=Date Blues
TTITLE3=stoppin' The Boogie
TTITLE4=Ice Cream
TTITLE5=The fives
TTITLE6=Sweet Georgie Brown
TTITLE7=Blues in the Air
TTITLE8=Stracciatella Boogie
TTITLE9=Dinah
TTITLE10=Jumpin' At The Woodside
TTITLE11=St. Louis Blues
TTITLE12=Struttin' With Some Barbeque
TTITLE13=Lazy River
TTITLE14=Blueberry Hill
TTITLE15=Bill Bailey
TTITLE16=St.James Infirmary
TTITLE17=Careless Love
EXTD=
EXTT0=
EXTT1=
EXTT2=
EXTT3=
EXTT4=
EXTT5=
EXTT6=
EXTT7=
EXTT8=
EXTT9=
EXTT10=
EXTT11=
EXTT12=
EXTT13=
EXTT14=
EXTT15=
EXTT16=
EXTT17=
PLAYORDER=
